<mxfile host="app.diagrams.net" modified="2024-04-27T05:22:48.176Z" agent="Mozilla/5.0 (Windows NT 10.0; Win64; x64) AppleWebKit/537.36 (KHTML, like Gecko) Chrome/123.0.0.0 Safari/537.36" etag="ecbwVxK8BvtDkIPPsYGI" version="21.3.2" type="device">
  <diagram name="Страница 1" id="wnu83PQXjWgFwxdrAiML">
    <mxGraphModel dx="521" dy="605" grid="1" gridSize="10" guides="1" tooltips="1" connect="1" arrows="1" fold="1" page="1" pageScale="1" pageWidth="827" pageHeight="1169" math="0" shadow="0">
      <root>
        <mxCell id="0" />
        <mxCell id="1" parent="0" />
        <mxCell id="0T6550_bJ-ykSYc_7AiQ-1" value="клиент" style="shape=umlActor;verticalLabelPosition=bottom;verticalAlign=top;html=1;outlineConnect=0;fontSize=16;" vertex="1" parent="1">
          <mxGeometry x="30" y="100" width="30" height="60" as="geometry" />
        </mxCell>
        <mxCell id="0T6550_bJ-ykSYc_7AiQ-2" value="повар" style="shape=umlActor;verticalLabelPosition=bottom;verticalAlign=top;html=1;outlineConnect=0;fontSize=16;" vertex="1" parent="1">
          <mxGeometry x="30" y="300" width="30" height="60" as="geometry" />
        </mxCell>
        <mxCell id="0T6550_bJ-ykSYc_7AiQ-3" value="администратор" style="shape=umlActor;verticalLabelPosition=bottom;verticalAlign=top;html=1;outlineConnect=0;fontSize=16;" vertex="1" parent="1">
          <mxGeometry x="450" y="90" width="30" height="60" as="geometry" />
        </mxCell>
        <mxCell id="0T6550_bJ-ykSYc_7AiQ-4" value="поставщик" style="shape=umlActor;verticalLabelPosition=bottom;verticalAlign=top;html=1;outlineConnect=0;fontSize=16;" vertex="1" parent="1">
          <mxGeometry x="450" y="230" width="30" height="60" as="geometry" />
        </mxCell>
        <mxCell id="0T6550_bJ-ykSYc_7AiQ-5" value="бухгалтер" style="shape=umlActor;verticalLabelPosition=bottom;verticalAlign=top;html=1;outlineConnect=0;fontSize=16;" vertex="1" parent="1">
          <mxGeometry x="450" y="370" width="30" height="60" as="geometry" />
        </mxCell>
        <mxCell id="0T6550_bJ-ykSYc_7AiQ-16" style="edgeStyle=none;curved=1;rounded=0;orthogonalLoop=1;jettySize=auto;html=1;exitX=0.5;exitY=1;exitDx=0;exitDy=0;entryX=0.5;entryY=0;entryDx=0;entryDy=0;fontSize=12;startSize=8;endSize=8;" edge="1" parent="1" source="0T6550_bJ-ykSYc_7AiQ-6" target="0T6550_bJ-ykSYc_7AiQ-8">
          <mxGeometry relative="1" as="geometry" />
        </mxCell>
        <mxCell id="0T6550_bJ-ykSYc_7AiQ-17" value="uses" style="edgeLabel;html=1;align=center;verticalAlign=middle;resizable=0;points=[];fontSize=16;" vertex="1" connectable="0" parent="0T6550_bJ-ykSYc_7AiQ-16">
          <mxGeometry x="-0.3228" y="1" relative="1" as="geometry">
            <mxPoint as="offset" />
          </mxGeometry>
        </mxCell>
        <mxCell id="0T6550_bJ-ykSYc_7AiQ-6" value="продажа блюда" style="ellipse;whiteSpace=wrap;html=1;fontSize=16;" vertex="1" parent="1">
          <mxGeometry x="130" y="60" width="100" height="60" as="geometry" />
        </mxCell>
        <mxCell id="0T6550_bJ-ykSYc_7AiQ-18" value="uses" style="edgeStyle=none;curved=1;rounded=0;orthogonalLoop=1;jettySize=auto;html=1;exitX=0.5;exitY=1;exitDx=0;exitDy=0;entryX=0.5;entryY=0;entryDx=0;entryDy=0;fontSize=12;startSize=8;endSize=8;" edge="1" parent="1" source="0T6550_bJ-ykSYc_7AiQ-8" target="0T6550_bJ-ykSYc_7AiQ-9">
          <mxGeometry relative="1" as="geometry" />
        </mxCell>
        <mxCell id="0T6550_bJ-ykSYc_7AiQ-8" value="оформление блюда" style="ellipse;whiteSpace=wrap;html=1;fontSize=16;" vertex="1" parent="1">
          <mxGeometry x="110" y="210" width="110" height="70" as="geometry" />
        </mxCell>
        <mxCell id="0T6550_bJ-ykSYc_7AiQ-9" value="определение наличия блюда" style="ellipse;whiteSpace=wrap;html=1;fontSize=16;" vertex="1" parent="1">
          <mxGeometry x="150" y="320" width="120" height="80" as="geometry" />
        </mxCell>
        <mxCell id="0T6550_bJ-ykSYc_7AiQ-22" value="uses" style="edgeStyle=none;curved=1;rounded=0;orthogonalLoop=1;jettySize=auto;html=1;exitX=0;exitY=0.5;exitDx=0;exitDy=0;entryX=0.5;entryY=1;entryDx=0;entryDy=0;fontSize=12;startSize=8;endSize=8;" edge="1" parent="1" source="0T6550_bJ-ykSYc_7AiQ-10" target="0T6550_bJ-ykSYc_7AiQ-9">
          <mxGeometry relative="1" as="geometry" />
        </mxCell>
        <mxCell id="0T6550_bJ-ykSYc_7AiQ-10" value="оформление заказа" style="ellipse;whiteSpace=wrap;html=1;fontSize=16;" vertex="1" parent="1">
          <mxGeometry x="300" y="410" width="100" height="60" as="geometry" />
        </mxCell>
        <mxCell id="0T6550_bJ-ykSYc_7AiQ-26" value="extends" style="edgeStyle=none;curved=1;rounded=0;orthogonalLoop=1;jettySize=auto;html=1;exitX=0.5;exitY=0;exitDx=0;exitDy=0;entryX=0.5;entryY=1;entryDx=0;entryDy=0;fontSize=12;startSize=8;endSize=8;" edge="1" parent="1" source="0T6550_bJ-ykSYc_7AiQ-11" target="0T6550_bJ-ykSYc_7AiQ-12">
          <mxGeometry relative="1" as="geometry" />
        </mxCell>
        <mxCell id="0T6550_bJ-ykSYc_7AiQ-11" value="продажа продуктов" style="ellipse;whiteSpace=wrap;html=1;fontSize=16;" vertex="1" parent="1">
          <mxGeometry x="300" y="260" width="100" height="60" as="geometry" />
        </mxCell>
        <mxCell id="0T6550_bJ-ykSYc_7AiQ-12" value="оформление приходных документов" style="ellipse;whiteSpace=wrap;html=1;fontSize=16;" vertex="1" parent="1">
          <mxGeometry x="260" y="150" width="110" height="70" as="geometry" />
        </mxCell>
        <mxCell id="0T6550_bJ-ykSYc_7AiQ-13" value="формирование отчетов" style="ellipse;whiteSpace=wrap;html=1;fontSize=16;" vertex="1" parent="1">
          <mxGeometry x="250" y="40" width="120" height="70" as="geometry" />
        </mxCell>
        <mxCell id="0T6550_bJ-ykSYc_7AiQ-15" value="" style="endArrow=none;html=1;rounded=0;fontSize=12;startSize=8;endSize=8;curved=1;" edge="1" parent="1" target="0T6550_bJ-ykSYc_7AiQ-6">
          <mxGeometry width="50" height="50" relative="1" as="geometry">
            <mxPoint x="60" y="120" as="sourcePoint" />
            <mxPoint x="110" y="70" as="targetPoint" />
          </mxGeometry>
        </mxCell>
        <mxCell id="0T6550_bJ-ykSYc_7AiQ-19" value="" style="endArrow=none;html=1;rounded=0;fontSize=12;startSize=8;endSize=8;curved=1;entryX=0;entryY=0.5;entryDx=0;entryDy=0;" edge="1" parent="1" target="0T6550_bJ-ykSYc_7AiQ-8">
          <mxGeometry width="50" height="50" relative="1" as="geometry">
            <mxPoint x="60" y="320" as="sourcePoint" />
            <mxPoint x="110" y="270" as="targetPoint" />
          </mxGeometry>
        </mxCell>
        <mxCell id="0T6550_bJ-ykSYc_7AiQ-20" value="" style="endArrow=none;html=1;rounded=0;fontSize=12;startSize=8;endSize=8;curved=1;entryX=0;entryY=0.5;entryDx=0;entryDy=0;" edge="1" parent="1" target="0T6550_bJ-ykSYc_7AiQ-9">
          <mxGeometry width="50" height="50" relative="1" as="geometry">
            <mxPoint x="60" y="320" as="sourcePoint" />
            <mxPoint x="110" y="270" as="targetPoint" />
          </mxGeometry>
        </mxCell>
        <mxCell id="0T6550_bJ-ykSYc_7AiQ-23" value="" style="endArrow=none;html=1;rounded=0;fontSize=12;startSize=8;endSize=8;curved=1;exitX=1;exitY=0.5;exitDx=0;exitDy=0;" edge="1" parent="1" source="0T6550_bJ-ykSYc_7AiQ-10">
          <mxGeometry width="50" height="50" relative="1" as="geometry">
            <mxPoint x="400" y="440" as="sourcePoint" />
            <mxPoint x="450" y="390" as="targetPoint" />
          </mxGeometry>
        </mxCell>
        <mxCell id="0T6550_bJ-ykSYc_7AiQ-24" value="" style="endArrow=none;html=1;rounded=0;fontSize=12;startSize=8;endSize=8;curved=1;entryX=1;entryY=0.5;entryDx=0;entryDy=0;" edge="1" parent="1" target="0T6550_bJ-ykSYc_7AiQ-9">
          <mxGeometry width="50" height="50" relative="1" as="geometry">
            <mxPoint x="450" y="390" as="sourcePoint" />
            <mxPoint x="500" y="340" as="targetPoint" />
          </mxGeometry>
        </mxCell>
        <mxCell id="0T6550_bJ-ykSYc_7AiQ-25" value="" style="endArrow=none;html=1;rounded=0;fontSize=12;startSize=8;endSize=8;curved=1;exitX=1;exitY=0.5;exitDx=0;exitDy=0;" edge="1" parent="1" source="0T6550_bJ-ykSYc_7AiQ-11">
          <mxGeometry width="50" height="50" relative="1" as="geometry">
            <mxPoint x="400" y="300" as="sourcePoint" />
            <mxPoint x="450" y="250" as="targetPoint" />
          </mxGeometry>
        </mxCell>
        <mxCell id="0T6550_bJ-ykSYc_7AiQ-27" value="" style="endArrow=none;html=1;rounded=0;fontSize=12;startSize=8;endSize=8;curved=1;exitX=1;exitY=0.5;exitDx=0;exitDy=0;" edge="1" parent="1" source="0T6550_bJ-ykSYc_7AiQ-12">
          <mxGeometry width="50" height="50" relative="1" as="geometry">
            <mxPoint x="400" y="160" as="sourcePoint" />
            <mxPoint x="450" y="110" as="targetPoint" />
          </mxGeometry>
        </mxCell>
        <mxCell id="0T6550_bJ-ykSYc_7AiQ-28" value="" style="endArrow=none;html=1;rounded=0;fontSize=12;startSize=8;endSize=8;curved=1;exitX=1;exitY=0.5;exitDx=0;exitDy=0;" edge="1" parent="1" source="0T6550_bJ-ykSYc_7AiQ-13">
          <mxGeometry width="50" height="50" relative="1" as="geometry">
            <mxPoint x="400" y="160" as="sourcePoint" />
            <mxPoint x="450" y="110" as="targetPoint" />
          </mxGeometry>
        </mxCell>
      </root>
    </mxGraphModel>
  </diagram>
</mxfile>
